<?xml version="1.0" encoding="UTF-8" standalone="no"?>
<!-- Generator: Adobe Illustrator 19.0.0, SVG Export Plug-In . SVG Version: 6.00 Build 0)  -->

<svg
   version="1.1"
   id="Capa_1"
   x="0px"
   y="0px"
   viewBox="0 0 57 57"
   style="enable-background:new 0 0 57 57;"
   xml:space="preserve"
   xmlns="http://www.w3.org/2000/svg"
   xmlns:svg="http://www.w3.org/2000/svg"><defs
   id="defs53" />





<g
   id="g20">
</g>
<g
   id="g22">
</g>
<g
   id="g24">
</g>
<g
   id="g26">
</g>
<g
   id="g28">
</g>
<g
   id="g30">
</g>
<g
   id="g32">
</g>
<g
   id="g34">
</g>
<g
   id="g36">
</g>
<g
   id="g38">
</g>
<g
   id="g40">
</g>
<g
   id="g42">
</g>
<g
   id="g44">
</g>
<g
   id="g46">
</g>
<g
   id="g48">
</g>
<g
   id="g3998"
   transform="translate(0.69861493,-1.1805197)"><g
     id="g261"
     transform="matrix(0.95354307,0,0,0.95354307,-0.74600602,-0.56377098)"><g
       id="g8"
       transform="rotate(180,28.5,28.5)">
	<circle
   style="fill:#bdc3c7"
   cx="18.5"
   cy="31.5"
   r="5.5"
   id="circle4" />
	<path
   style="fill:#bdc3c7"
   d="M 18.5,38 C 14.916,38 12,35.084 12,31.5 12,27.916 14.916,25 18.5,25 c 3.584,0 6.5,2.916 6.5,6.5 0,3.584 -2.916,6.5 -6.5,6.5 z m 0,-11 C 16.019,27 14,29.019 14,31.5 14,33.981 16.019,36 18.5,36 20.981,36 23,33.981 23,31.5 23,29.019 20.981,27 18.5,27 Z"
   id="path6" />
</g><g
       id="g14"
       transform="rotate(180,28.5,28.5)">
	<circle
   style="fill:#bdc3c7"
   cx="35.5"
   cy="31.5"
   r="5.5"
   id="circle10" />
	<path
   style="fill:#bdc3c7"
   d="M 35.5,38 C 31.916,38 29,35.084 29,31.5 29,27.916 31.916,25 35.5,25 c 3.584,0 6.5,2.916 6.5,6.5 0,3.584 -2.916,6.5 -6.5,6.5 z m 0,-11 C 33.019,27 31,29.019 31,31.5 31,33.981 33.019,36 35.5,36 37.981,36 40,33.981 40,31.5 40,29.019 37.981,27 35.5,27 Z"
   id="path12" />
</g><path
       style="fill:#bdc3c7"
       d="m 44,25 c 0.553,0 1,0.447 1,1 0,7.72 -6.28,14 -14,14 -0.553,0 -1,-0.447 -1,-1 0,-0.553 0.447,-1 1,-1 6.617,0 12,-5.383 12,-12 0,-0.553 0.447,-1 1,-1 z"
       id="path16" /><path
       style="fill:#bdc3c7"
       d="m 27,25 c 0.553,0 1,0.447 1,1 0,7.72 -6.28,14 -14,14 -0.553,0 -1,-0.447 -1,-1 0,-0.553 0.447,-1 1,-1 6.617,0 12,-5.383 12,-12 0,-0.553 0.447,-1 1,-1 z"
       id="path18" /></g><rect
     style="opacity:1;fill:none;stroke:#000000;stroke-width:0;stroke-miterlimit:4;stroke-dasharray:none"
     id="rect312"
     width="31.314005"
     height="31.314001"
     x="11.248998"
     y="11.776418" /></g></svg>
